<svg version="1.1" id="Layer_1" xmlns:x="ns_extend;" xmlns:i="ns_ai;" xmlns:graph="ns_graphs;" xmlns="http://www.w3.org/2000/svg" xmlns:xlink="http://www.w3.org/1999/xlink" x="0px" y="0px" viewBox="0 0 154.8 50" style="enable-background:new 0 0 154.8 50;" xml:space="preserve">
 <style type="text/css">
  .st0{fill:#007782;}
 </style>
 <metadata>
  <sfw xmlns="ns_sfw;">
   <slices>
   </slices>
   <sliceSourceBounds bottomLeftOrigin="true" height="50" width="154.8" x="-71.8" y="10.2">
   </sliceSourceBounds>
  </sfw>
 </metadata>
 <path class="st0" d="M31,0c-0.5,0-1.2,0.4-2.9,2c-0.6,0.2-1.3,0.1-2.1,1.3c-4.4,6.4-7.9,30.2-10.8,37c-0.6-3-1.8-22.3-2.3-27.6
	c-0.1-1,0.1-2.2,0.1-2.9c0-4.9-1.1-7.3-5.9-7.3c-2.5,0-4.9,0.9-6.2,2.5C0.2,5.7,0,6.3,0,7.9C0,18,2.4,34.6,5.1,45.4
	c0.8,3.4,3.9,4,6.7,4c1.3,0,2.7-0.2,4.6-1.1c6.6-3.2,8.4-12,10.1-20.6c0.3-1.5,1.9-9,2.6-12.9c1-5.4,2.1-11.4,2.8-13.6
	C32.1,0.5,31.7,0,31,0L31,0z M143.4,24.2c-0.9,6.7-4.3,18.2-8.1,18.2c-1.1,0-1.7-1.3-1.7-2.8C133.7,35.2,136.6,26.4,143.4,24.2z
	 M110.2,31.8c0.9-3.9,4.6-9.9,8-9.9c0.6,0,1,0.4,0.9,1.3C118.8,26.2,116.6,31.1,110.2,31.8z M154.8,3c0-1.2-0.7-2.2-2.4-2.2
	c-1.3,0-2.9,0.7-3.9,1.5c-1.2-0.3-2.7,0.6-2.9,1.7c-1,4.7-1.5,9.7-2,13.7c-6.8,0.6-11.9,4.4-14.5,10.5c-0.4,1-0.9,2-1.5,2.9
	c-3.6,6.1-8.1,9.6-12.5,9.6c-3.2,0-5.1-2.3-5.3-5.4c1.2,0.3,2.2,0.4,3.3,0.4c7.3,0,11-6.9,11-11.6c0-4.5-3-6.8-7.5-6.8
	c-8.2,0.1-15,9.8-15,18.7c0,6.3,2.8,11.4,9.3,11.4c5,0,11.9-2.7,16.6-9.8c-0.3,5,1,9.9,5.3,10.4c2.4,0.2,6.8-1.3,9.7-7.2
	c0.2,4.9,1.8,7.3,3.1,7.3c2.3,0,3.7-0.8,5.5-0.9c0.6,0,0.7-0.5,0.7-1c0-0.7-0.8-3.4-0.8-7.3c0-5.9,1.2-15.2,3.7-34
	C154.7,4.7,154.8,3.7,154.8,3L154.8,3z M42.7,15.1c2.2,0,4-1.8,4-3.8c0-2.6-0.8-5-3.7-5c-2,0-5.4,2.2-5.4,4.2
	C37.5,12.8,40,15.1,42.7,15.1z M102.3,13.5c-1.3-0.3-2.6-0.3-4-0.3c0.1-1,0-2.9,0-4.5c0-0.3,0.1-0.7,0.1-1.3c0-0.6-0.1-1.2-0.5-1.7
	c0.1-0.4,0.2-0.7,0.2-1c0-1.3-2-1.9-3.9-1.9c-1.6,0-3.1,0.6-3.7,2.4c-0.9,3.1-1.1,4.5-1.3,7.7c-2,0.1-5.8,0.1-5.7,1.3
	c0.2,3.1,3.2,4.1,5.4,4.2c-0.3,8.6-7.4,22.4-9.6,22.4c-0.4,0-0.6-0.7-0.6-2.1c0-2.8,0.6-6.6,0.6-10.5c0-2.5-0.3-4.7-1-6.1
	c-1-1.7-4.1-2.6-6.6-2.6c-1,0-1.7,0.1-2.4,0.3c-4.1,1.7-7.5,11-8.8,13c0.6-5.6,1.5-10,1.5-12.3c0-1.3-1.1-2.4-2.4-2.4
	c-0.5,0-1,0.2-1.4,0.6c-1.9,0.7-4.3,0-4.7,2.6c-0.1,0.7-0.3,1.5-0.3,2.5c-0.4,6.8-7.3,19.5-10.8,19.5c-0.9,0-1.1-1.1-1.1-2.6
	c0-4.8,2.5-14.8,2.5-16.8c0.1-0.3,0.2-0.7,0.2-1c0-1.9-2.2-3.8-4.5-3.8c-0.7,0-1.1-0.1-1.7-0.1c-0.3,0-0.7,0.1-1.1,0.3
	C34.2,21.1,32,30.4,32,36.1c0,6.3,3.7,11.4,9.5,11.4c4.2,0,7.7-3.8,10.7-9.1c0,0.8-0.2,4.8,0,7c0.1,1.5,1.7,0.9,3.6,1.7
	c0.7,0.6,1.4,0.9,2,0.9c1,0,1.7-0.9,2.3-2.4c2.3-6.3,7.9-20.5,9.4-20.5c1.2,0,0,9.1,0,13.6c0,2.6,0.3,4.8,1.1,5.7
	c1.7,1.7,3.4,2.6,5.3,2.6c4.1,0,8.4-4.4,11.9-12.5c-0.2,3.5-0.3,4.5-0.3,5.7c0,2,0.1,4.3,0.4,5.9c0.2,0.8,0.3,1.3,1,1.9
	c1,0.5,1.8,0.8,2.3,1.2c1.1,0.5,1,0.8,2.5,0.8c0.5,0,1.3-0.5,1.4-1.7c1.3-13.3,2.7-29.8,2.7-29.8c0.9,0,3.5-0.7,5.8-1
	c1-0.1,2.2-0.7,2.2-1.5C106,15.4,104.4,14,102.3,13.5z">
 </path>
</svg>